<svg width="30" height="30" viewBox="0 0 30 30" fill="none" xmlns="http://www.w3.org/2000/svg">
<path d="M8.22285 6.46973C7.73847 5.98535 6.95314 5.98535 6.46875 6.46973C5.98437 6.95411 5.98437 7.73945 6.46875 8.22383L13.2452 15.0003L6.46875 21.7767C5.98437 22.2611 5.98437 23.0464 6.46875 23.5308C6.95314 24.0152 7.73847 24.0152 8.22285 23.5308L14.9993 16.7544L21.7757 23.5308C22.2601 24.0152 23.0454 24.0152 23.5298 23.5308C24.0142 23.0464 24.0142 22.2611 23.5298 21.7767L16.7534 15.0003L23.5298 8.22383C24.0142 7.73945 24.0142 6.95411 23.5298 6.46973C23.0454 5.98535 22.2601 5.98535 21.7757 6.46973L14.9993 13.2462L8.22285 6.46973Z" fill="white"/>
</svg>
