<svg width="24" height="24" viewBox="0 0 24 24" fill="none" xmlns="http://www.w3.org/2000/svg">
<path fill-rule="evenodd" clip-rule="evenodd" d="M9.50157 12.1483C9.97101 12.1483 10.3516 12.5289 10.3516 12.9983V20.9983C10.3516 21.4678 9.97101 21.8483 9.50157 21.8483C9.03212 21.8483 8.65157 21.4678 8.65157 20.9983V12.9983C8.65157 12.5289 9.03212 12.1483 9.50157 12.1483Z" fill="#161617"/>
<path fill-rule="evenodd" clip-rule="evenodd" d="M19.5016 7.15134C19.971 7.15134 20.3516 7.5319 20.3516 8.00134V21.0013C20.3516 21.4708 19.971 21.8513 19.5016 21.8513C19.0321 21.8513 18.6516 21.4708 18.6516 21.0013V8.00134C18.6516 7.5319 19.0321 7.15134 19.5016 7.15134Z" fill="#161617"/>
<path fill-rule="evenodd" clip-rule="evenodd" d="M14.5016 2.14978C14.971 2.14978 15.3516 2.53034 15.3516 2.99978V20.9998C15.3516 21.4692 14.971 21.8498 14.5016 21.8498C14.0321 21.8498 13.6516 21.4692 13.6516 20.9998V2.99978C13.6516 2.53034 14.0321 2.14978 14.5016 2.14978Z" fill="#161617"/>
<path fill-rule="evenodd" clip-rule="evenodd" d="M4.50157 7.15134C4.97101 7.15134 5.35157 7.5319 5.35157 8.00134V21.0013C5.35157 21.4708 4.97101 21.8513 4.50157 21.8513C4.03212 21.8513 3.65157 21.4708 3.65157 21.0013V8.00134C3.65157 7.5319 4.03212 7.15134 4.50157 7.15134Z" fill="#161617"/>
</svg>
