<svg viewBox="0 0 343 44" fill="none" xmlns="http://www.w3.org/2000/svg">
<path d="M15.8685 5.06755C14.0895 5.06755 12.5487 5.40864 11.2462 6.09081C9.97541 6.77298 8.92703 7.68254 8.10105 8.81949C7.27506 9.95644 6.65556 11.2883 6.24257 12.8151C5.86134 14.3093 5.67073 15.8848 5.67073 17.5415C5.67073 19.2307 5.87723 20.8387 6.29022 22.3654C6.70322 23.8922 7.32271 25.2403 8.1487 26.4097C9.00646 27.5467 10.0866 28.4563 11.3891 29.1384C12.6916 29.8206 14.2324 30.1617 16.0115 30.1617C18.2035 30.1617 20.0302 29.6744 21.4916 28.6999C22.9847 27.7254 23.9219 26.4097 24.3031 24.753H29.8309C29.5768 26.4097 29.0367 27.8878 28.2107 29.1872C27.4165 30.4865 26.4158 31.591 25.2085 32.5005C24.0013 33.3776 22.6035 34.0598 21.0151 34.5471C19.4266 35.0018 17.727 35.2292 15.9162 35.2292C13.2794 35.2292 10.9602 34.7907 8.9588 33.9136C6.98914 33.0365 5.33716 31.8184 4.00287 30.2591C2.66858 28.6999 1.66786 26.8483 1.00072 24.7043C0.333572 22.5604 0 20.2052 0 17.639C0 15.1377 0.333572 12.8151 1.00072 10.6711C1.69963 8.49465 2.71623 6.6268 4.05052 5.06755C5.38481 3.47582 7.03679 2.24142 9.00646 1.36434C11.0079 0.45478 13.327 0 15.9638 0C19.6808 0 22.7465 0.893319 25.1609 2.67996C27.5753 4.46659 29.0367 7.09782 29.545 10.5736L24.1125 10.5736C23.6995 8.88446 22.7782 7.5526 21.3486 6.57807C19.919 5.57106 18.0923 5.06755 15.8685 5.06755Z" fill="white"/>
<path d="M62.1833 34.8881H56.6556L56.6556 5.50609L40.3582 5.50609L40.3582 34.8881H34.8304L34.8304 0.438538L62.1833 0.438538L62.1833 34.8881Z" fill="white"/>
<path d="M69.0588 34.8881V0.438538L92.4565 0.438538V5.50609L74.5866 5.50609V15.3001L90.4074 15.3001V20.4164L74.5866 20.4164V29.8693L92.4565 29.8693V34.8881H69.0588Z" fill="white"/>
<path d="M97.4702 34.8881V0.438538L102.998 0.438538V29.8693H118.485V0.438538L123.965 0.438538V29.8693H128.016V44H122.536V34.8881L97.4702 34.8881Z" fill="white"/>
<path d="M143.958 34.8881H138.43V5.50609L127.708 5.50609V0.438538L154.632 0.438538V5.50609L143.958 5.50609V34.8881Z" fill="white"/>
<path d="M158.016 34.8881V0.438538L181.414 0.438538V5.50609L163.544 5.50609V15.3001L179.364 15.3001V20.4164L163.544 20.4164V29.8693L181.414 29.8693V34.8881H158.016Z" fill="white"/>
<path d="M205.25 0.438538L211.731 0.438538L200.914 17.5903L212.065 34.8881H205.488L197.435 22.0244L189.191 34.8881H182.948L194.147 17.639L183.282 0.438538L189.858 0.438538L197.578 13.2536L205.25 0.438538Z" fill="white"/>
<path d="M220.971 15.3976L237.126 15.3976V0.438538L242.653 0.438538V34.8881H237.126V20.4651L220.971 20.4651V34.8881H215.443V0.438538L220.971 0.438538V15.3976Z" fill="white"/>
<path d="M249.532 34.8881V0.438538L255.06 0.438538V25.7276L272.358 0.438538L277.314 0.438538V34.8881H271.786V9.84275L254.488 34.8881H249.532Z" fill="white"/>
<path d="M289.707 34.8881L284.18 34.8881V0.438538L289.707 0.438538V15.495L294.044 15.495L304.432 0.438538L310.77 0.438538L298.761 17.1517L310.913 34.8881H304.48L294.568 20.5138H289.707V34.8881Z" fill="white"/>
<path d="M330.324 0.438538L343 34.8881H336.948L334.47 27.9203L319.173 27.9203L316.648 34.8881H310.643L323.414 0.438538L330.324 0.438538ZM332.755 22.8527L326.846 6.04208L320.889 22.8527H332.755Z" fill="white"/>
</svg>
