<svg width="24" height="25" viewBox="0 0 24 25" fill="none" xmlns="http://www.w3.org/2000/svg">
<path d="M13.7678 10.7322C14.7441 11.7085 14.7441 13.2915 13.7678 14.2678C12.7915 15.2441 11.2085 15.2441 10.2322 14.2678C9.25592 13.2915 9.25592 11.7085 10.2322 10.7322C11.2085 9.75592 12.7915 9.75592 13.7678 10.7322" stroke="black" stroke-width="1.5" stroke-linecap="round" stroke-linejoin="round"/>
<path fill-rule="evenodd" clip-rule="evenodd" d="M14.8492 4.6202L15.4322 4.8142C15.9662 4.9922 16.3272 5.4922 16.3272 6.0552V6.8922C16.3272 7.6042 16.8952 8.1852 17.6072 8.2002L18.4452 8.2182C18.9302 8.2282 19.3702 8.5072 19.5872 8.9412L19.8622 9.4912C20.1142 9.9952 20.0152 10.6032 19.6172 11.0012L19.0252 11.5932C18.5222 12.0962 18.5132 12.9092 19.0052 13.4232L19.5852 14.0292C19.9212 14.3802 20.0352 14.8872 19.8812 15.3482L19.6872 15.9312C19.5092 16.4652 19.0092 16.8262 18.4462 16.8262H17.6092C16.8972 16.8262 16.3162 17.3942 16.3012 18.1062L16.2832 18.9442C16.2732 19.4292 15.9942 19.8692 15.5602 20.0862L15.0102 20.3612C14.5062 20.6132 13.8982 20.5142 13.5002 20.1162L12.9082 19.5242C12.4052 19.0212 11.5922 19.0122 11.0782 19.5042L10.4722 20.0842C10.1212 20.4202 9.61415 20.5342 9.15315 20.3802L8.57015 20.1862C8.03615 20.0082 7.67515 19.5082 7.67515 18.9452V18.1082C7.67515 17.3962 7.10715 16.8152 6.39515 16.8002L5.55715 16.7822C5.07215 16.7722 4.63215 16.4932 4.41515 16.0592L4.14015 15.5092C3.88815 15.0052 3.98715 14.3972 4.38515 13.9992L4.97715 13.4072C5.48015 12.9042 5.48915 12.0912 4.99715 11.5772L4.41715 10.9712C4.08015 10.6192 3.96615 10.1112 4.12015 9.6512L4.31415 9.0682C4.49215 8.5342 4.99215 8.1732 5.55515 8.1732H6.39215C7.10415 8.1732 7.68515 7.6052 7.70015 6.8932L7.71815 6.0552C7.73015 5.5702 8.00815 5.1302 8.44215 4.9132L8.99215 4.6382C9.49615 4.3862 10.1042 4.4852 10.5022 4.8832L11.0942 5.4752C11.5972 5.9782 12.4102 5.9872 12.9242 5.4952L13.5302 4.9152C13.8812 4.5802 14.3892 4.4662 14.8492 4.6202V4.6202Z" stroke="black" stroke-width="1.5" stroke-linecap="round" stroke-linejoin="round"/>
</svg>
