<svg viewBox="0 0 184 185" fill="none" xmlns="http://www.w3.org/2000/svg">
<path d="M40.2421 83.6301C33.6616 83.6301 27.8404 82.532 22.7785 80.3356C17.8854 78.1393 13.6671 75.1826 10.1238 71.4658C6.7492 67.7489 4.21825 63.3562 2.53095 58.2877C0.84365 53.2192 0 47.7283 0 41.8151C0 29.6507 3.3746 19.6826 10.1238 11.911C17.0417 3.97032 27.0812 0 40.2421 0C53.0656 0 62.8519 3.97032 69.6011 11.911C76.519 19.6826 79.978 29.6507 79.978 41.8151C79.978 47.7283 79.05 53.2192 77.1939 58.2877C75.5066 63.3562 72.9757 67.7489 69.6011 71.4658C66.2265 75.1826 62.0926 78.1393 57.1994 80.3356C52.3063 82.532 46.6538 83.6301 40.2421 83.6301ZM20.7538 182.212L133.128 3.0411H161.981L49.6066 182.212H20.7538ZM40.2421 22.0479C33.8304 22.0479 29.359 24.0753 26.8281 28.1301C24.2971 32.016 23.0316 36.5776 23.0316 41.8151C23.0316 47.2215 24.2971 51.8676 26.8281 55.7534C29.359 59.6393 33.8304 61.5822 40.2421 61.5822C46.3164 61.5822 50.5346 59.6393 52.8968 55.7534C55.2591 51.6986 56.4402 47.0525 56.4402 41.8151C56.4402 36.5776 55.2591 32.016 52.8968 28.1301C50.5346 24.0753 46.3164 22.0479 40.2421 22.0479ZM144.011 185C137.431 185 131.609 183.902 126.547 181.705C121.654 179.509 117.436 176.553 113.893 172.836C110.518 169.119 107.987 164.726 106.3 159.658C104.613 154.589 103.769 149.098 103.769 143.185C103.769 131.021 107.144 121.053 113.893 113.281C120.811 105.34 130.85 101.37 144.011 101.37C156.834 101.37 166.705 105.34 173.623 113.281C180.541 121.053 184 131.021 184 143.185C184 149.098 183.072 154.589 181.216 159.658C179.529 164.726 176.998 169.119 173.623 172.836C170.249 176.553 166.03 179.509 160.968 181.705C156.075 183.902 150.423 185 144.011 185ZM143.758 123.418C137.684 123.418 133.297 125.361 130.597 129.247C128.066 133.132 126.801 137.779 126.801 143.185C126.801 148.591 128.066 153.237 130.597 157.123C133.297 161.009 137.684 162.952 143.758 162.952C150.001 162.952 154.304 161.009 156.666 157.123C159.028 153.068 160.209 148.422 160.209 143.185C160.209 140.482 159.956 137.947 159.45 135.582C158.944 133.217 158.016 131.189 156.666 129.5C155.485 127.642 153.797 126.205 151.604 125.192C149.579 124.009 146.964 123.418 143.758 123.418Z" fill="#3300FF"/>
</svg>
