<svg viewBox="0 0 247 181" fill="none" xmlns="http://www.w3.org/2000/svg">
<path d="M0 136.454H22.764V116.485H0V91.396H22.764V0H88.4984C98.5589 0 107.682 1.02404 115.866 3.07213C124.051 4.94955 131.042 8.19236 136.84 12.8006C142.638 17.2381 147.071 23.1264 150.14 30.4653C153.38 37.8043 155 46.8501 155 57.6025C155 58.1146 155 58.5413 155 58.8826C155 67.7577 153.295 75.95 149.884 83.4597C146.474 90.9694 141.785 97.199 135.817 102.149C129.849 106.927 122.687 110.512 114.332 112.901C105.976 115.29 96.9389 116.485 87.2195 116.485H52.434V136.454H103.845V160.007H52.434V181H22.764V160.007H0V136.454ZM85.9406 91.396C91.3971 91.396 96.4274 90.7987 101.031 89.604C105.806 88.4092 109.984 86.5318 113.564 83.9717C117.145 81.4116 119.959 78.0835 122.005 73.9873C124.222 69.8911 125.415 64.8562 125.586 58.8826C125.586 52.5677 124.733 47.3621 123.028 43.2659C121.323 38.9991 118.765 35.6709 115.355 33.2815C112.115 30.7214 108.108 29.0146 103.333 28.1612C98.5589 27.1372 93.0171 26.6252 86.7079 26.6252H52.434V91.396H85.9406Z" fill="#3300FF"/>
<path d="M119 78.9851L192 0L265 78.9851L243.727 95.4403L205.212 51.7791V147H178.788V51.7791L140.273 95.4403L119 78.9851Z" fill="#3300FF"/>
</svg>
