<svg width="72" height="73" viewBox="0 0 72 73" fill="none" xmlns="http://www.w3.org/2000/svg">
<g clip-path="url(#clip0_1014_106404)">
<path d="M69.9793 28.7863C68.8543 24.7981 66.9024 22.6325 64.8662 21.4738L70.1706 20.5063C70.3215 20.486 70.4667 20.4354 70.5975 20.3573C70.7283 20.2793 70.8418 20.1755 70.9313 20.0523C71.0208 19.9291 71.0843 19.789 71.1181 19.6406C71.1518 19.4921 71.1551 19.3383 71.1276 19.1885C71.1002 19.0387 71.0426 18.8961 70.9584 18.7692C70.8742 18.6423 70.7652 18.5338 70.6378 18.4504C70.5105 18.3669 70.3675 18.3101 70.2176 18.2835C70.0676 18.2569 69.9138 18.261 69.7656 18.2956L59.0612 20.2644C58.9825 20.2801 58.9053 20.3027 58.8306 20.3319C58.494 20.3674 58.1597 20.4218 57.8293 20.495L54.3193 21.5469C54.0606 21.5469 53.8918 21.5469 53.8524 21.5469C53.3237 21.5469 52.8343 21.1925 51.4843 20.1688L50.7643 19.6063C49.0469 18.4094 47.2607 17.3144 45.4149 16.3269C44.2899 15.6969 43.2324 15.1006 42.6362 14.7013C40.6112 13.3513 36.9549 13.4525 35.2056 14.0319C33.8443 14.4875 30.8237 16.2819 28.6918 18.1606C26.7765 18.288 24.869 18.5133 22.9768 18.8356C18.0156 19.8313 15.9512 19.3981 15.9399 19.3981L8.96493 17.7894L2.50181 16.1638C2.3585 16.1268 2.20933 16.1185 2.06279 16.1392C1.91626 16.1599 1.77525 16.2093 1.6478 16.2845C1.52035 16.3597 1.40897 16.4593 1.32 16.5776C1.23104 16.6958 1.16624 16.8304 1.12931 16.9738C1.09237 17.1171 1.08403 17.2662 1.10474 17.4128C1.12546 17.5593 1.17484 17.7003 1.25005 17.8278C1.32527 17.9552 1.42485 18.0666 1.54311 18.1556C1.66137 18.2445 1.796 18.3093 1.93931 18.3463L7.31118 19.7019C4.81368 28.8369 0.488057 44.7331 0.0830565 45.9312C0.00317277 46.1704 -0.022124 46.4243 0.00902499 46.6745C0.040174 46.9247 0.126977 47.1647 0.263057 47.3769C1.24181 48.98 5.62368 49.8069 7.43493 50.0769C7.49104 50.0825 7.54757 50.0825 7.60368 50.0769C7.79487 50.0773 7.983 50.0289 8.15031 49.9364C8.31763 49.8439 8.4586 49.7103 8.55993 49.5481L10.0787 47.1237C10.2603 47.3346 10.4661 47.5234 10.6918 47.6862C11.3 48.1249 12.0196 48.383 12.7679 48.4307C13.5162 48.4785 14.2628 48.314 14.9218 47.9563C14.9662 48.2819 15.0552 48.5998 15.1862 48.9013C15.5809 49.7546 16.1693 50.5041 16.9046 51.09C17.6399 51.6759 18.5019 52.0821 19.4218 52.2763C20.453 52.5147 21.534 52.408 22.4987 51.9725C22.735 52.9858 23.2699 53.9048 24.0343 54.6106C24.6936 55.3438 25.5526 55.8685 26.5059 56.1203C27.4592 56.3721 28.4652 56.3401 29.4006 56.0281C29.566 56.5079 29.8376 56.9442 30.195 57.3046C30.5524 57.6649 30.9865 57.94 31.4649 58.1094C32.0234 58.2971 32.6083 58.3939 33.1974 58.3963C34.5873 58.3523 35.9255 57.8588 37.0112 56.99C37.3071 57.4336 37.7119 57.7938 38.1868 58.0363C38.6635 58.2739 39.1898 58.3953 39.7224 58.3906C40.2646 58.3819 40.8019 58.2869 41.3143 58.1094C41.8885 57.885 42.4105 57.545 42.8478 57.1106C43.2852 56.6761 43.6286 56.1564 43.8568 55.5838C44.9481 55.6738 46.7087 55.6344 48.0362 54.7513C48.9863 54.089 49.6622 53.1031 49.9374 51.9781C50.6742 52.1376 51.4384 52.1187 52.1663 51.923C52.8943 51.7273 53.565 51.3605 54.1224 50.8531C55.3487 49.6269 55.6412 48.4344 55.5456 47.4781C56.0232 47.4392 56.4949 47.3468 56.9518 47.2025C57.7075 48.855 59.0422 50.1737 60.7037 50.9094C61.8373 51.4277 63.0685 51.6981 64.3149 51.7025C65.3355 51.7187 66.3461 51.4992 67.2681 51.0613C72.4431 48.4625 73.3599 40.9644 69.9793 28.7863ZM35.9143 16.175C37.3768 15.6856 40.1893 15.7813 41.3874 16.58C42.0568 17.0244 43.0749 17.615 44.3181 18.2956C46.0623 19.2289 47.7525 20.26 49.3806 21.3838L50.0893 21.9181C51.5968 23.0431 52.5081 23.7575 53.8187 23.7575C54.0831 23.7575 60.3437 23.8363 61.8624 30.4119C63.6231 38.0338 63.1899 43.7487 62.6162 44.5081C62.3975 44.8075 62.1181 45.0574 61.7963 45.2415C61.4746 45.4257 61.1176 45.54 60.7487 45.5769C60.3062 45.6069 59.8619 45.5554 59.4381 45.425C60.0065 44.5299 60.2674 43.4738 60.1811 42.417C60.0948 41.3602 59.6661 40.3604 58.9599 39.5694C57.8349 38.4444 42.7881 25.5463 40.5606 23.87C37.7481 21.7663 35.4981 22.745 33.8837 23.8363C32.7249 24.6069 30.8124 27.5038 30.2893 28.55C30.0024 29 27.8143 30.6931 25.9412 30.6594C25.5782 30.6691 25.22 30.5747 24.909 30.3873C24.598 30.1999 24.3472 29.9273 24.1862 29.6019C24.0399 29.3488 24.7487 28.415 25.3112 27.6613C25.8777 26.9237 26.4035 26.1556 26.8862 25.3606C27.4195 24.5383 27.8377 23.6469 28.1293 22.7113C28.2956 22.1391 28.5834 21.6095 28.9731 21.1588C30.3737 19.2181 34.4574 16.6588 35.9143 16.175ZM7.04681 47.7425C4.94306 47.36 2.95181 46.7638 2.32181 46.3194C3.21056 43.3269 8.21118 24.8938 9.48243 20.2081L14.4943 21.3894C14.3424 24.1513 13.8249 32.2681 12.9756 35.2494C12.299 37.5421 11.4394 39.7768 10.4049 41.9319C9.95648 42.5448 9.6247 43.2351 9.42618 43.9681L9.33618 44.0806L7.04681 47.7425ZM12.0418 45.9256C11.9105 45.8397 11.7986 45.7272 11.7134 45.5955C11.6281 45.4637 11.5714 45.3156 11.5468 45.1606C11.5332 44.6488 11.6701 44.1442 11.9406 43.7094C12.5391 43.7956 13.1285 43.9368 13.7012 44.1313C14.2415 44.3859 14.6627 44.8393 14.8768 45.3969C14.1849 45.9144 12.9362 46.6119 12.0418 45.9256ZM19.9562 50.1106C19.3665 49.9949 18.8125 49.7415 18.3394 49.371C17.8663 49.0005 17.4874 48.5235 17.2337 47.9787C17.0821 47.4491 17.0685 46.8895 17.1943 46.3531L20.2487 43.3269C21.2274 42.3538 22.1049 41.9319 22.9431 42.0331C23.7801 42.2174 24.5332 42.6721 25.0862 43.3269C26.2843 44.5194 26.5431 45.0538 23.8318 48.215L23.3706 48.7437C22.8756 49.2219 21.2724 50.4369 19.9562 50.1106ZM25.5812 53.0188C24.1862 51.59 24.7487 50.6394 24.9624 50.3356L25.0299 50.2569C25.3056 49.9475 25.5924 49.6381 25.8456 49.3288C27.0043 48.0013 29.1024 45.6219 30.0418 44.6825C30.6101 44.0918 31.388 43.7483 32.2074 43.7262C32.6911 43.7488 33.1655 43.8673 33.603 44.0749C34.0405 44.2825 34.4323 44.5751 34.7556 44.9356C36.0381 46.2181 35.4249 47.3994 35.2224 47.7144L29.4456 53.5025C29.0406 53.795 27.3924 54.8075 25.6037 53.0188H25.5812ZM32.1287 55.9719C31.6168 55.8031 31.4143 55.19 31.3356 54.7681L36.8706 49.2331C36.9709 49.1137 37.0961 49.0176 37.2375 48.9517C37.3789 48.8858 37.533 48.8517 37.689 48.8517C37.845 48.8517 37.9991 48.8858 38.1405 48.9517C38.2819 49.0176 38.4071 49.1137 38.5074 49.2331C39.6324 50.3581 39.1037 51.2863 38.9293 51.5394C38.3311 52.4319 37.6594 53.273 36.9212 54.0538C34.6149 56.3994 33.1862 56.3094 32.1512 55.9719H32.1287ZM40.5662 55.9719C39.2443 56.4163 38.8787 55.8594 38.7606 55.6006C38.7433 55.556 38.7227 55.5127 38.6987 55.4713C39.2025 54.9358 39.6757 54.3724 40.1162 53.7838L41.6631 54.875C41.4487 55.36 41.0646 55.75 40.5831 55.9719H40.5662ZM54.0662 45.1831C54.0662 45.1831 54.0099 45.1831 53.9818 45.1831L44.3349 37.3531C44.1021 37.1824 43.8126 37.1077 43.5263 37.1445C43.24 37.1812 42.9787 37.3267 42.7967 37.5507C42.6146 37.7747 42.5255 38.0601 42.548 38.3479C42.5705 38.6357 42.7028 38.9039 42.9174 39.0969L53.1718 47.4275C53.2012 47.4533 53.2333 47.4759 53.2674 47.495C53.3631 47.8606 53.3068 48.4569 52.5081 49.2556C51.5799 50.1838 49.9149 49.7113 49.5099 49.5763L39.9362 43.2031C39.8132 43.1211 39.6753 43.0642 39.5302 43.0355C39.3852 43.0068 39.236 43.007 39.0911 43.0359C38.9461 43.0649 38.8083 43.1222 38.6855 43.2044C38.5627 43.2867 38.4572 43.3923 38.3752 43.5153C38.2932 43.6383 38.2363 43.7762 38.2076 43.9212C38.1789 44.0663 38.1791 44.2155 38.2081 44.3604C38.237 44.5054 38.2943 44.6432 38.3766 44.766C38.4588 44.8888 38.5644 44.9943 38.6874 45.0763L47.8112 51.1456C47.7042 51.8414 47.3285 52.4675 46.7649 52.8894C45.7693 53.5531 43.9524 53.3844 43.3112 53.2606L43.2606 53.2156L41.2806 51.8206C41.507 51.0861 41.5182 50.3021 41.3128 49.5614C41.1074 48.8207 40.6941 48.1543 40.1218 47.6413C39.8238 47.3223 39.4656 47.0657 39.0678 46.8861C38.67 46.7065 38.2406 46.6076 37.8043 46.595C37.7993 45.9804 37.6684 45.3734 37.4198 44.8113C37.1712 44.2492 36.8101 43.744 36.3587 43.3269C35.829 42.7555 35.1903 42.2959 34.4803 41.9752C33.7702 41.6544 33.0032 41.4791 32.2243 41.4594C31.5248 41.4694 30.8341 41.6177 30.1922 41.8957C29.5502 42.1737 28.9695 42.576 28.4837 43.0794C28.3374 43.22 28.1743 43.3888 27.9887 43.5856C27.7031 42.8751 27.2654 42.2357 26.7062 41.7125C25.7989 40.6939 24.5738 40.0119 23.2299 39.7775C21.6774 39.5863 20.1418 40.2387 18.6624 41.7125L16.5981 43.7825C16.1115 42.9465 15.3471 42.3075 14.4381 41.9769C13.9759 41.8386 13.5064 41.7259 13.0318 41.6394C13.8607 39.7569 14.5635 37.8214 15.1356 35.8456C16.0356 32.7013 16.5587 24.7644 16.7274 21.7269C18.976 21.7686 21.2215 21.5401 23.4156 21.0463C24.3212 20.8663 25.5193 20.72 26.5824 20.6131C26.3006 21.0558 26.0846 21.5371 25.9412 22.0419C25.7006 22.8054 25.3562 23.5323 24.9174 24.2019C24.4337 25.0063 23.9162 25.7038 23.4662 26.3225C22.3749 27.7963 21.3456 29.1856 22.2174 30.71C22.5882 31.4131 23.1534 31.9948 23.8455 32.3858C24.5376 32.7767 25.3276 32.9604 26.1212 32.915C28.7931 32.8363 31.7012 30.71 32.2693 29.5794C32.8374 28.4488 34.5193 26.1144 35.1099 25.715C36.5274 24.77 37.5962 24.4831 39.1881 25.6756C41.2749 27.245 56.3049 40.1319 57.3737 41.1725C57.755 41.6273 57.964 42.2018 57.964 42.7953C57.964 43.3888 57.755 43.9634 57.3737 44.4181C56.1868 45.5769 54.0774 45.1888 54.0606 45.1831H54.0662ZM66.2443 49.0475C65.0406 49.6494 63.1843 49.5763 61.6262 48.8563C61.0612 48.5969 60.541 48.2494 60.0849 47.8269C60.3059 47.8429 60.5277 47.8429 60.7487 47.8269C61.4568 47.7886 62.1481 47.5967 62.7746 47.2645C63.4011 46.9323 63.9478 46.4678 64.3768 45.9031C65.9968 43.8838 65.5018 36.02 64.0618 29.8944C63.1168 25.7994 60.6868 23.7069 58.4368 22.6269C58.9431 22.4975 65.4681 21.0238 67.7856 29.3769C70.8737 40.385 70.3393 47 66.2387 49.0475H66.2443Z" fill="white"/>
</g>
<defs>
<clipPath id="clip0_1014_106404">
<rect width="72" height="72" fill="white" transform="translate(0 0.015625)"/>
</clipPath>
</defs>
</svg>
