<svg width="68" height="69" viewBox="0 0 68 69" fill="none" xmlns="http://www.w3.org/2000/svg">
<g clip-path="url(#clip0_1014_106409)">
<path d="M67.7251 33.7751L61.6689 26.9775L63.5654 18.0129C63.6203 17.752 63.5779 17.4798 63.4464 17.2488C63.3149 17.0178 63.1037 16.8445 62.8536 16.7623L54.2526 13.9484L51.4795 5.22097C51.3985 4.96718 51.2277 4.75286 51.0001 4.61944C50.7724 4.48602 50.5041 4.44298 50.247 4.49863L41.4389 6.42308L34.7133 0.277767C34.518 0.0989707 34.2644 0 34.0014 0C33.7384 0 33.4847 0.0989707 33.2895 0.277767L26.5905 6.42308L17.7558 4.49863C17.4987 4.44298 17.2304 4.48602 17.0027 4.61944C16.7751 4.75286 16.6042 4.96718 16.5233 5.22097L13.7501 13.9484L5.14921 16.7623C4.8991 16.8445 4.68788 17.0178 4.5564 17.2488C4.42491 17.4798 4.38249 17.752 4.43733 18.0129L6.3339 26.9775L0.277648 33.7751C0.101443 33.9732 0.00390625 34.2306 0.00390625 34.4975C0.00390625 34.7643 0.101443 35.0217 0.277648 35.2198L6.3339 42.0443L4.43733 50.982C4.38249 51.2429 4.42491 51.5151 4.5564 51.7461C4.68788 51.9771 4.8991 52.1505 5.14921 52.2326L13.7501 55.0465L16.5233 63.7739C16.6042 64.0277 16.7751 64.2421 17.0027 64.3755C17.2304 64.5089 17.4987 64.5519 17.7558 64.4963L26.5905 62.5718L33.2895 68.7171C33.4847 68.896 33.7384 68.9949 34.0014 68.9949C34.2644 68.9949 34.518 68.896 34.7133 68.7171L41.4389 62.5718L50.2736 64.4963C50.5307 64.5519 50.799 64.5089 51.0266 64.3755C51.2543 64.2421 51.4251 64.0277 51.5061 63.7739L54.2792 55.0465L62.8801 52.2326C63.1302 52.1505 63.3415 51.9771 63.4729 51.7461C63.6044 51.5151 63.6469 51.2429 63.592 50.982L61.6689 42.0443L67.7251 35.2468C67.9089 35.0471 68.0111 34.7841 68.0111 34.5109C68.0111 34.2378 67.9089 33.9748 67.7251 33.7751ZM59.7245 40.9662C59.6118 41.093 59.5304 41.2451 59.487 41.4101C59.4436 41.575 59.4394 41.7481 59.4748 41.915L61.2864 50.4645L53.0839 53.1598C52.9235 53.2123 52.7777 53.3027 52.6585 53.4236C52.5394 53.5445 52.4503 53.6924 52.3986 53.8552L49.7423 62.1783L41.3273 60.3725C41.1628 60.3366 40.9923 60.3408 40.8298 60.3849C40.6672 60.4289 40.5173 60.5115 40.3923 60.6258L34.0014 66.4639L27.6264 60.5989C27.4307 60.4211 27.1771 60.3232 26.9145 60.3239C26.8403 60.316 26.7656 60.316 26.6914 60.3239L18.2658 62.1621L15.6095 53.839C15.5578 53.6763 15.4687 53.5283 15.3496 53.4074C15.2304 53.2865 15.0846 53.1961 14.9242 53.1436L6.72171 50.4483L8.53327 41.8988C8.56533 41.7339 8.55897 41.5638 8.51469 41.4018C8.47042 41.2399 8.38946 41.0907 8.27827 40.9662L2.49827 34.4975L8.27827 28.0287C8.39095 27.9019 8.47234 27.7498 8.51575 27.5849C8.55916 27.4199 8.56334 27.2469 8.52796 27.08L6.7164 18.5143L14.9189 15.8189C15.0793 15.7665 15.2251 15.6761 15.3442 15.5552C15.4634 15.4342 15.5525 15.2863 15.6042 15.1235L18.2605 6.80042L26.6861 8.63863C26.8505 8.67685 27.0216 8.67479 27.1851 8.63261C27.3486 8.59042 27.4999 8.50933 27.6264 8.39605L34.0014 2.53105L40.3764 8.39605C40.5013 8.51038 40.6513 8.59297 40.8138 8.63702C40.9764 8.68107 41.1469 8.68531 41.3114 8.64941L49.737 6.81121L52.3933 15.1343C52.445 15.2971 52.5341 15.445 52.6532 15.5659C52.7724 15.6868 52.9182 15.7773 53.0786 15.8297L61.2811 18.525L59.5014 27.0638C59.466 27.2307 59.4702 27.4037 59.5136 27.5687C59.557 27.7336 59.6384 27.8857 59.7511 28.0125L65.5045 34.4975L59.7245 40.9662Z" fill="white"/>
<path d="M23.9753 29.765C25.0346 29.7607 26.0688 29.4381 26.9475 28.8378C27.8262 28.2376 28.51 27.3866 28.9124 26.3924C29.3149 25.3982 29.418 24.3052 29.2088 23.2515C28.9995 22.1979 28.4874 21.2307 27.7369 20.4722C26.9864 19.7137 26.0312 19.1978 24.992 18.9897C23.9528 18.7815 22.8761 18.8905 21.8979 19.3028C20.9196 19.7151 20.0837 20.4123 19.4957 21.3062C18.9076 22.2002 18.5938 23.251 18.5938 24.3258C18.5951 25.0415 18.7354 25.7499 19.0067 26.4106C19.2779 27.0713 19.6746 27.6713 20.1744 28.1763C20.6741 28.6814 21.267 29.0817 21.9191 29.3542C22.5713 29.6268 23.27 29.7664 23.9753 29.765ZM23.9753 21.0429C24.6143 21.0472 25.2377 21.2433 25.7669 21.6066C26.2962 21.97 26.7075 22.4841 26.9492 23.0844C27.1908 23.6846 27.2518 24.344 27.1246 24.9794C26.9974 25.6148 26.6876 26.1977 26.2343 26.6547C25.781 27.1117 25.2045 27.4222 24.5775 27.5471C23.9505 27.6721 23.301 27.6058 22.7111 27.3567C22.1212 27.1076 21.6171 26.6868 21.2626 26.1474C20.908 25.608 20.7188 24.9742 20.7187 24.3258C20.7159 23.8911 20.7982 23.4601 20.9609 23.0579C21.1235 22.6557 21.3633 22.2903 21.6663 21.9828C21.9692 21.6754 22.3294 21.4321 22.7257 21.2671C23.1221 21.102 23.5469 21.0185 23.9753 21.0214V21.0429Z" fill="white"/>
<path d="M44.0266 39.2305C42.9673 39.2347 41.933 39.5574 41.0543 40.1576C40.1756 40.7579 39.4919 41.6088 39.0895 42.6031C38.687 43.5973 38.5839 44.6902 38.7931 45.7439C39.0023 46.7976 39.5145 47.7647 40.265 48.5232C41.0155 49.2818 41.9706 49.7976 43.0099 50.0058C44.0491 50.2139 45.1258 50.1049 46.104 49.6926C47.0822 49.2803 47.9181 48.5832 48.5062 47.6892C49.0943 46.7952 49.4081 45.7445 49.4081 44.6696C49.4067 43.9539 49.2664 43.2455 48.9952 42.5848C48.724 41.9242 48.3272 41.3242 47.8275 40.8191C47.3278 40.314 46.7349 39.9138 46.0827 39.6412C45.4306 39.3686 44.7319 39.2291 44.0266 39.2305ZM44.0266 47.9525C43.3876 47.9483 42.7642 47.7521 42.2349 47.3888C41.7057 47.0255 41.2943 46.5113 41.0527 45.9111C40.8111 45.3108 40.7501 44.6514 40.8773 44.016C41.0045 43.3807 41.3143 42.7977 41.7676 42.3408C42.2209 41.8838 42.7974 41.5733 43.4244 41.4483C44.0514 41.3234 44.7008 41.3896 45.2908 41.6387C45.8807 41.8878 46.3847 42.3086 46.7393 42.848C47.0939 43.3874 47.2831 44.0212 47.2831 44.6696C47.2859 45.1044 47.2036 45.5354 47.041 45.9376C46.8783 46.3398 46.6386 46.7052 46.3356 47.0126C46.0326 47.32 45.6725 47.5633 45.2761 47.7284C44.8797 47.8934 44.455 47.9769 44.0266 47.9741V47.9525Z" fill="white"/>
<path d="M47.638 20.6573C47.439 20.4565 47.1697 20.3438 46.889 20.3438C46.6083 20.3438 46.339 20.4565 46.1399 20.6573L20.3637 46.8126C20.1658 47.0146 20.0547 47.2878 20.0547 47.5727C20.0547 47.8575 20.1658 48.1307 20.3637 48.3327C20.5627 48.5335 20.832 48.6462 21.1127 48.6462C21.3934 48.6462 21.6627 48.5335 21.8618 48.3327L47.638 22.1774C47.8359 21.9754 47.947 21.7022 47.947 21.4173C47.947 21.1325 47.8359 20.8593 47.638 20.6573Z" fill="white"/>
</g>
<defs>
<clipPath id="clip0_1014_106409">
<rect width="68" height="69" fill="white"/>
</clipPath>
</defs>
</svg>
