<svg width="78" height="77" viewBox="0 0 78 77" fill="none" xmlns="http://www.w3.org/2000/svg">
<path d="M39.0044 64.6803C33.7592 64.6803 28.6319 63.1449 24.2707 60.2682C19.9095 57.3915 16.5103 53.3027 14.5031 48.519C12.4959 43.7352 11.9707 38.4713 12.994 33.3929C14.0172 28.3144 16.543 23.6496 20.2519 19.9883C23.9608 16.3269 28.6862 13.8335 33.8306 12.8234C38.975 11.8132 44.3073 12.3317 49.1531 14.3132C53.999 16.2947 58.1409 19.6502 61.055 23.9555C63.969 28.2608 65.5244 33.3224 65.5244 38.5003C65.5175 45.4416 62.7212 52.0966 57.7492 57.0048C52.7773 61.9131 46.0358 64.6735 39.0044 64.6803ZM39.0044 14.9042C34.2753 14.9042 29.6525 16.2886 25.7205 18.8824C21.7885 21.4761 18.724 25.1627 16.9146 29.4759C15.1052 33.7891 14.6321 38.5351 15.5552 43.1138C16.4782 47.6924 18.756 51.898 22.1004 55.1986C25.4448 58.4992 29.7056 60.7466 34.3439 61.6566C38.9823 62.5666 43.7898 62.0983 48.1585 60.3109C52.5272 58.5235 56.2609 55.4972 58.8873 51.615C61.5136 47.7327 62.9148 43.1687 62.9135 38.5003C62.9083 32.2427 60.3875 26.2429 55.9046 21.8187C51.4217 17.3945 45.3433 14.9076 39.0044 14.9042Z" fill="white"/>
<path d="M39.0001 71.8181C30.9763 71.8195 23.2142 68.9997 17.1054 63.864C10.9966 58.7283 6.94052 51.6126 5.66424 43.7924C4.38797 35.9723 5.97496 27.9591 10.1407 21.1892C14.3065 14.4194 20.7787 9.33565 28.397 6.84931C28.7041 6.7496 29.0387 6.77439 29.3273 6.91823C29.6158 7.06207 29.8347 7.31317 29.9357 7.61631C30.0367 7.91944 30.0116 8.24977 29.8659 8.53463C29.7202 8.81949 29.4658 9.03554 29.1587 9.13525C22.0911 11.4429 16.0871 16.16 12.223 22.4411C8.3588 28.7222 6.88709 36.1566 8.07163 43.4117C9.25617 50.6667 13.0195 57.2682 18.6871 62.0326C24.3547 66.7971 31.556 69.4132 39.0001 69.4118C39.3234 69.4118 39.6334 69.5386 39.8619 69.7642C40.0905 69.9898 40.2189 70.2959 40.2189 70.6149C40.2189 70.934 40.0905 71.2401 39.8619 71.4657C39.6334 71.6913 39.3234 71.8181 39.0001 71.8181Z" fill="white"/>
<path d="M49.268 70.1906C48.9778 70.1914 48.697 70.09 48.4758 69.9046C48.2546 69.7192 48.1077 69.4621 48.0615 69.1793C48.0152 68.8966 48.0726 68.6068 48.2234 68.3622C48.3742 68.1175 48.6084 67.9339 48.8841 67.8445C55.9416 65.5258 61.9329 60.8034 65.7857 54.5225C69.6385 48.2417 71.1013 40.8122 69.9124 33.5639C68.7235 26.3156 64.9604 19.7215 59.2966 14.9618C53.6328 10.2022 46.4381 7.58756 39 7.58598C38.6768 7.58598 38.3668 7.45922 38.1382 7.2336C37.9097 7.00797 37.7812 6.70195 37.7812 6.38286C37.7812 6.06377 37.9097 5.75775 38.1382 5.53212C38.3668 5.30649 38.6768 5.17973 39 5.17973C47.0281 5.16678 54.7981 7.97849 60.9157 13.1103C67.0334 18.2422 71.0982 25.3582 72.3809 33.1816C73.6636 41.0049 72.0801 49.0234 67.9146 55.7983C63.7491 62.5732 57.2742 67.6609 49.6519 70.1485C49.527 70.1826 49.3974 70.1968 49.268 70.1906Z" fill="white"/>
<path d="M34.4572 51.7344C34.134 51.7344 33.824 51.6077 33.5954 51.382C33.3668 51.1564 33.2384 50.8504 33.2384 50.5313V40.9905H30.8984C30.5752 40.9905 30.2652 40.8638 30.0367 40.6381C29.8081 40.4125 29.6797 40.1065 29.6797 39.7874C29.6797 39.4683 29.8081 39.1623 30.0367 38.9367C30.2652 38.711 30.5752 38.5843 30.8984 38.5843H33.2384V26.4688C33.2384 26.1497 33.3668 25.8437 33.5954 25.6181C33.824 25.3924 34.134 25.2657 34.4572 25.2657H40.2219C42.3539 25.2576 44.4025 26.0823 45.9209 27.5598C47.4393 29.0373 48.3041 31.0476 48.3266 33.1522C48.3266 37.6218 45.0603 40.9725 40.7277 40.9725H35.6759V50.5313C35.6759 50.8504 35.5475 51.1564 35.319 51.382C35.0904 51.6077 34.7804 51.7344 34.4572 51.7344ZM35.6759 38.5843H40.7277C43.7136 38.5843 45.8891 36.2983 45.8891 33.1702C45.8558 31.7057 45.245 30.3117 44.1866 29.2849C43.1282 28.2581 41.7058 27.6794 40.2219 27.6719H35.6759V38.5843Z" fill="white"/>
<path d="M45.3894 45.4414H30.8984C30.5752 45.4414 30.2652 45.3146 30.0367 45.089C29.8081 44.8634 29.6797 44.5574 29.6797 44.2383C29.6797 43.9192 29.8081 43.6132 30.0367 43.3875C30.2652 43.1619 30.5752 43.0352 30.8984 43.0352H45.3894C45.7126 43.0352 46.0226 43.1619 46.2512 43.3875C46.4797 43.6132 46.6081 43.9192 46.6081 44.2383C46.6081 44.5574 46.4797 44.8634 46.2512 45.089C46.0226 45.3146 45.7126 45.4414 45.3894 45.4414Z" fill="white"/>
</svg>
