<svg width="68" height="69" viewBox="0 0 68 69" fill="none" xmlns="http://www.w3.org/2000/svg">
<path fill-rule="evenodd" clip-rule="evenodd" d="M29.2188 15.4219C29.2188 13.9549 30.408 12.7656 31.875 12.7656H35.5938C37.0608 12.7656 38.25 13.9549 38.25 15.4219C38.25 16.8889 37.0608 18.0781 35.5938 18.0781H31.875C30.408 18.0781 29.2188 16.8889 29.2188 15.4219ZM31.875 14.8906C31.5816 14.8906 31.3438 15.1285 31.3438 15.4219C31.3438 15.7153 31.5816 15.9531 31.875 15.9531H35.5938C35.8872 15.9531 36.125 15.7153 36.125 15.4219C36.125 15.1285 35.8872 14.8906 35.5938 14.8906H31.875Z" fill="white"/>
<path fill-rule="evenodd" clip-rule="evenodd" d="M21.7292 13.0385C21.7861 12.9332 21.8516 12.8298 21.9263 12.7294C22.9847 11.3081 26.5231 7.4535 33.6117 7.45312H33.6172C40.1522 7.45482 44.2126 11.1285 45.5429 12.5528C45.6745 12.6937 45.7872 12.8444 45.8821 13.0019C46.1486 13.4327 46.2815 13.916 46.3087 14.3855L46.569 18.8751C46.5892 19.2228 46.5546 19.5562 46.4736 19.8692L46.6487 25.1866C46.6852 26.2956 46.1679 27.2485 45.3797 27.8518C45.4953 28.0218 45.5629 28.2272 45.5629 28.4484V31.4086C45.5629 32.7343 44.9885 33.9949 43.9882 34.8648C43.8739 34.9643 43.7768 35.1149 43.7217 35.3115C43.4264 36.3665 42.6651 38.6504 41.1254 40.6916C40.6211 41.3601 40.0265 42.0102 39.3324 42.5837C39.449 42.5397 39.5753 42.5156 39.7073 42.5156C40.2941 42.5156 40.7698 42.9913 40.7698 43.5781V46.579L49.928 48.3778C49.9353 48.3792 49.9426 48.3807 49.95 48.3822V42.8838C48.3523 41.939 47.2776 40.1969 47.2776 38.2022C47.2776 35.7791 48.8626 33.7288 51.0497 33.0264C52.1578 32.6705 53.0467 33.588 53.0467 34.5176V37.3827H54.0797V34.5176C54.0797 33.588 54.969 32.6705 56.0767 33.0264C58.2638 33.7288 59.8491 35.7791 59.8491 38.2022C59.8491 40.1969 58.7744 41.939 57.1769 42.8837V57.2738C57.1769 57.7184 57.0956 58.1471 56.9469 58.5434C56.6621 59.9635 55.4147 61.1094 53.8183 61.1094H14.1746C11.9676 61.1094 10.4284 58.9206 11.175 56.8434L12.5039 53.1465C13.3859 50.6931 15.4882 48.8805 18.0449 48.3693L26.9849 46.582V43.5781C26.9849 43.1346 27.2567 42.7545 27.6428 42.5954C26.9503 42.0229 26.3707 41.3699 25.8893 40.69C24.4309 38.6301 23.8662 36.3241 23.6661 35.2449C23.6272 35.0348 23.5403 34.8725 23.4357 34.7663C22.6024 33.9209 22.1353 32.7815 22.1353 31.5944V28.4484C22.1353 28.2611 22.1838 28.085 22.2689 27.9322C21.3904 27.3273 20.8058 26.3078 20.8647 25.1151L21.1184 19.978C21.0009 19.5974 20.9528 19.1846 20.9905 18.7515L21.388 14.1811C21.4204 13.8087 21.5201 13.4112 21.7292 13.0385ZM55.0519 52.1656V42.5844C55.0519 41.9279 55.445 41.3989 55.9417 41.14C57.0032 40.5864 57.7241 39.4776 57.7241 38.2022C57.7241 37.035 57.1195 36.0072 56.2047 35.4176V37.9139C56.2047 38.7942 55.4912 39.5077 54.611 39.5077H52.5154C51.6353 39.5077 50.9217 38.7942 50.9217 37.9139V35.4176C50.0072 36.0072 49.4026 37.035 49.4026 38.2022C49.4026 39.4777 50.1236 40.5864 51.1851 41.14C51.6817 41.399 52.075 41.928 52.075 42.5845V49.1568C53.3301 49.8462 54.3682 50.8888 55.0519 52.1656ZM23.1421 22.0816L22.9871 25.2199C22.9514 25.9431 23.6634 26.5506 24.4298 26.3626C26.9394 25.7471 30.6881 24.9621 33.6087 24.952C36.6297 24.9415 40.5238 25.7542 43.0858 26.3805C43.8423 26.5654 44.5484 25.9738 44.5248 25.2565L44.4212 22.1064C43.828 22.3248 43.1648 22.3779 42.5022 22.2164C39.9508 21.5944 36.3254 20.856 33.6161 20.8654C31.0126 20.8744 27.5476 21.5801 25.0535 22.1886C24.3928 22.3499 23.7327 22.2976 23.1421 22.0816ZM44.0676 14.1087C44.1258 14.2089 44.1655 14.3404 44.1709 14.5031L44.3365 19.5359C44.1101 19.9926 43.5733 20.2903 43.0055 20.1519C40.4445 19.5275 36.5994 18.73 33.6087 18.7404C30.7329 18.7504 27.0556 19.5128 24.5499 20.1242C24.0171 20.2542 23.5134 20.0005 23.265 19.593L23.5233 14.3597C23.5298 14.2284 23.557 14.1323 23.5913 14.0633C23.5972 14.0537 23.6031 14.0449 23.6091 14.0369C24.3666 13.0058 27.2183 9.73644 33.1779 9.58365C33.321 9.57998 33.4658 9.57812 33.6124 9.57812C33.772 9.57812 33.9298 9.58062 34.086 9.58556C39.5341 9.75716 42.9161 12.8543 44.0074 14.0308C44.0287 14.0538 44.0489 14.0798 44.0676 14.1087ZM24.2603 28.5197V31.5944C24.2603 32.2232 24.5077 32.8268 24.9491 33.2747C25.3955 33.7275 25.6513 34.2959 25.7555 34.8575C25.9318 35.8088 26.423 37.7662 27.6237 39.4621C28.7934 41.1142 30.6249 42.5156 33.6124 42.5156C36.2868 42.5156 38.1355 41.1266 39.4289 39.4118C40.7378 37.6766 41.4108 35.684 41.6754 34.7388C41.8278 34.1944 42.1276 33.6668 42.5938 33.2614C43.13 32.795 43.4379 32.1193 43.4379 31.4086V28.5383C43.1559 28.5448 42.8684 28.515 42.5811 28.4447C40.0275 27.8204 36.3545 27.0675 33.6161 27.077C30.97 27.0862 27.4356 27.8134 24.936 28.4264C24.71 28.4819 24.4838 28.5124 24.2603 28.5197ZM29.1099 43.5791V46.9628C30.2941 47.8786 32.0393 48.3886 33.8774 48.3886C35.7154 48.3886 37.4607 47.8786 38.6448 46.9628V43.5781C38.6448 43.3498 38.7168 43.1383 38.8394 42.9651C37.4663 43.9579 35.7435 44.6406 33.6124 44.6406C31.8227 44.6406 30.3369 44.2315 29.1099 43.5791ZM21.2464 58.9844H46.7464V49.9185L44.6214 49.5011V51.0156C44.6214 52.776 43.1943 54.2031 41.4339 54.2031H26.5589C24.7984 54.2031 23.3714 52.776 23.3714 51.0156V49.4715L21.2464 49.8963V58.9844ZM19.1214 50.3212V58.9844H14.1746C13.4389 58.9844 12.9258 58.255 13.1747 57.5622L14.5037 53.8652C15.1336 52.1129 16.6353 50.8182 18.4615 50.4531L19.1214 50.3212ZM48.8714 50.3359V58.9844H53.8183C54.5536 58.9844 55.0668 58.255 54.8181 57.5622L53.4937 53.8791C52.8618 52.1203 51.3521 50.8232 49.5184 50.463L48.8714 50.3359ZM27.749 48.5963L25.4964 49.0467V51.0156C25.4964 51.6024 25.9721 52.0781 26.5589 52.0781H41.4339C42.0206 52.0781 42.4964 51.6024 42.4964 51.0156V49.0837L40.0075 48.5949C38.3471 49.91 36.0648 50.5136 33.8774 50.5136C31.6908 50.5136 29.4093 49.9105 27.749 48.5963Z" fill="white"/>
</svg>
