<svg width="78" height="78" viewBox="0 0 78 78" fill="none" xmlns="http://www.w3.org/2000/svg">
<path d="M64.5938 14.4766H13.4062C11.7901 14.4766 10.2401 15.1186 9.09732 16.2614C7.95452 17.4042 7.3125 18.9541 7.3125 20.5703V57.4253C7.3125 59.0415 7.95452 60.5914 9.09732 61.7342C10.2401 62.877 11.7901 63.5191 13.4062 63.5191H64.5938C66.2099 63.5191 67.7599 62.877 68.9027 61.7342C70.0455 60.5914 70.6875 59.0415 70.6875 57.4253V20.5703C70.6875 18.9541 70.0455 17.4042 68.9027 16.2614C67.7599 15.1186 66.2099 14.4766 64.5938 14.4766ZM68.25 57.4253C68.25 58.395 67.8648 59.325 67.1791 60.0107C66.4934 60.6964 65.5634 61.0816 64.5938 61.0816H13.4062C12.4366 61.0816 11.5066 60.6964 10.8209 60.0107C10.1352 59.325 9.75 58.395 9.75 57.4253V20.5703C9.75 19.6006 10.1352 18.6706 10.8209 17.985C11.5066 17.2993 12.4366 16.9141 13.4062 16.9141H64.5938C65.5634 16.9141 66.4934 17.2993 67.1791 17.985C67.8648 18.6706 68.25 19.6006 68.25 20.5703V57.4253Z" fill="white"/>
<path d="M59.7188 46.3086H36.5625C36.2393 46.3086 35.9293 46.437 35.7007 46.6656C35.4722 46.8941 35.3438 47.2041 35.3438 47.5273C35.3438 47.8506 35.4722 48.1606 35.7007 48.3891C35.9293 48.6177 36.2393 48.7461 36.5625 48.7461H59.7188C60.042 48.7461 60.352 48.6177 60.5805 48.3891C60.8091 48.1606 60.9375 47.8506 60.9375 47.5273C60.9375 47.2041 60.8091 46.8941 60.5805 46.6656C60.352 46.437 60.042 46.3086 59.7188 46.3086Z" fill="white"/>
<path d="M59.7188 29.2461H36.5625C36.2393 29.2461 35.9293 29.3745 35.7007 29.6031C35.4722 29.8316 35.3438 30.1416 35.3438 30.4648C35.3438 30.7881 35.4722 31.0981 35.7007 31.3266C35.9293 31.5552 36.2393 31.6836 36.5625 31.6836H59.7188C60.042 31.6836 60.352 31.5552 60.5805 31.3266C60.8091 31.0981 60.9375 30.7881 60.9375 30.4648C60.9375 30.1416 60.8091 29.8316 60.5805 29.6031C60.352 29.3745 60.042 29.2461 59.7188 29.2461Z" fill="white"/>
<path d="M21.5155 33.1233C21.6296 33.247 21.7681 33.3458 21.9223 33.4133C22.0764 33.4808 22.2429 33.5157 22.4112 33.5157C22.5795 33.5157 22.746 33.4808 22.9002 33.4133C23.0544 33.3458 23.1929 33.247 23.307 33.1233L28.9255 27.0296C29.0343 26.9119 29.1189 26.774 29.1744 26.6237C29.2299 26.4734 29.2553 26.3136 29.2491 26.1534C29.2429 25.9933 29.2052 25.8359 29.1381 25.6904C29.0711 25.5448 28.9761 25.4139 28.8584 25.305C28.7408 25.1962 28.6029 25.1116 28.4525 25.0561C28.3022 25.0005 28.1424 24.9752 27.9823 24.9814C27.8221 24.9876 27.6648 25.0253 27.5192 25.0924C27.3737 25.1594 27.2427 25.2544 27.1339 25.3721L22.4112 30.4969L19.1754 26.993C19.0709 26.8632 18.9408 26.7563 18.7932 26.6788C18.6457 26.6013 18.4838 26.5549 18.3176 26.5425C18.1514 26.53 17.9844 26.5518 17.827 26.6065C17.6695 26.6611 17.5249 26.7475 17.4022 26.8602C17.2794 26.9729 17.1811 27.1096 17.1133 27.2619C17.0455 27.4141 17.0096 27.5786 17.0079 27.7453C17.0062 27.9119 17.0386 28.0772 17.1033 28.2308C17.168 28.3844 17.2635 28.5231 17.3839 28.6383L21.5155 33.1233Z" fill="white"/>
<path d="M25.807 41.4336H20.5055C19.5902 41.4368 18.7135 41.8031 18.068 42.452C17.4225 43.101 17.0609 43.9795 17.0625 44.8948V50.1598C17.0609 51.0752 17.4225 51.9537 18.068 52.6026C18.7135 53.2516 19.5902 53.6179 20.5055 53.6211H25.807C26.7223 53.6179 27.599 53.2516 28.2445 52.6026C28.89 51.9537 29.2516 51.0752 29.25 50.1598V44.8948C29.2516 43.9795 28.89 43.101 28.2445 42.452C27.599 41.8031 26.7223 41.4368 25.807 41.4336ZM26.8125 50.1598C26.8141 50.2932 26.7893 50.4255 26.7396 50.5493C26.6899 50.673 26.6162 50.7857 26.5227 50.8809C26.4293 50.976 26.3179 51.0517 26.1951 51.1037C26.0723 51.1556 25.9404 51.1828 25.807 51.1836H20.5055C20.3721 51.1828 20.2402 51.1556 20.1174 51.1037C19.9946 51.0517 19.8832 50.976 19.7898 50.8809C19.6964 50.7857 19.6226 50.673 19.5729 50.5493C19.5232 50.4255 19.4984 50.2932 19.5 50.1598V44.8948C19.4984 44.7615 19.5232 44.6291 19.5729 44.5054C19.6226 44.3817 19.6964 44.269 19.7898 44.1738C19.8832 44.0787 19.9946 44.003 20.1174 43.951C20.2402 43.899 20.3721 43.8719 20.5055 43.8711H25.807C25.9404 43.8719 26.0723 43.899 26.1951 43.951C26.3179 44.003 26.4293 44.0787 26.5227 44.1738C26.6162 44.269 26.6899 44.3817 26.7396 44.5054C26.7893 44.6291 26.8141 44.7615 26.8125 44.8948V50.1598Z" fill="white"/>
</svg>
